<mxfile host="app.diagrams.net" agent="Mozilla/5.0 (Windows NT 10.0; Win64; x64) AppleWebKit/537.36 (KHTML, like Gecko) Chrome/137.0.0.0 Safari/537.36" version="27.1.5">
  <diagram name="PÃ¡gina-1" id="sF0VXBXO3cYOoTbF5HmK">
    <mxGraphModel dx="1426" dy="777" grid="1" gridSize="10" guides="1" tooltips="1" connect="1" arrows="1" fold="1" page="1" pageScale="1" pageWidth="827" pageHeight="1169" math="0" shadow="0">
      <root>
        <mxCell id="0" />
        <mxCell id="1" parent="0" />
        <mxCell id="0Dm5EvszsIW7v5qMqg8m-1" value="Persona" style="swimlane;fontStyle=1;align=center;verticalAlign=top;childLayout=stackLayout;horizontal=1;startSize=26;horizontalStack=0;resizeParent=1;resizeParentMax=0;resizeLast=0;collapsible=1;marginBottom=0;whiteSpace=wrap;html=1;" vertex="1" parent="1">
          <mxGeometry x="30" y="30" width="240" height="140" as="geometry" />
        </mxCell>
        <mxCell id="0Dm5EvszsIW7v5qMqg8m-2" value="- nombre : str&lt;div&gt;- edad: int&lt;/div&gt;" style="text;strokeColor=none;fillColor=none;align=left;verticalAlign=top;spacingLeft=4;spacingRight=4;overflow=hidden;rotatable=0;points=[[0,0.5],[1,0.5]];portConstraint=eastwest;whiteSpace=wrap;html=1;" vertex="1" parent="0Dm5EvszsIW7v5qMqg8m-1">
          <mxGeometry y="26" width="240" height="54" as="geometry" />
        </mxCell>
        <mxCell id="0Dm5EvszsIW7v5qMqg8m-3" value="" style="line;strokeWidth=1;fillColor=none;align=left;verticalAlign=middle;spacingTop=-1;spacingLeft=3;spacingRight=3;rotatable=0;labelPosition=right;points=[];portConstraint=eastwest;strokeColor=inherit;" vertex="1" parent="0Dm5EvszsIW7v5qMqg8m-1">
          <mxGeometry y="80" width="240" height="8" as="geometry" />
        </mxCell>
        <mxCell id="0Dm5EvszsIW7v5qMqg8m-4" value="+ saludar(): str" style="text;strokeColor=none;fillColor=none;align=left;verticalAlign=top;spacingLeft=4;spacingRight=4;overflow=hidden;rotatable=0;points=[[0,0.5],[1,0.5]];portConstraint=eastwest;whiteSpace=wrap;html=1;" vertex="1" parent="0Dm5EvszsIW7v5qMqg8m-1">
          <mxGeometry y="88" width="240" height="52" as="geometry" />
        </mxCell>
        <mxCell id="0Dm5EvszsIW7v5qMqg8m-5" value="name" style="endArrow=block;endFill=1;html=1;edgeStyle=orthogonalEdgeStyle;align=left;verticalAlign=top;rounded=0;" edge="1" parent="1">
          <mxGeometry x="-1" relative="1" as="geometry">
            <mxPoint x="30" y="230" as="sourcePoint" />
            <mxPoint x="190" y="230" as="targetPoint" />
          </mxGeometry>
        </mxCell>
        <mxCell id="0Dm5EvszsIW7v5qMqg8m-6" value="1" style="edgeLabel;resizable=0;html=1;align=left;verticalAlign=bottom;" connectable="0" vertex="1" parent="0Dm5EvszsIW7v5qMqg8m-5">
          <mxGeometry x="-1" relative="1" as="geometry" />
        </mxCell>
        <mxCell id="0Dm5EvszsIW7v5qMqg8m-7" value="Herencia :&amp;nbsp;" style="text;html=1;align=center;verticalAlign=middle;whiteSpace=wrap;rounded=0;" vertex="1" parent="1">
          <mxGeometry x="220" y="210" width="80" height="30" as="geometry" />
        </mxCell>
        <mxCell id="0Dm5EvszsIW7v5qMqg8m-8" value="Empleado" style="text;html=1;align=center;verticalAlign=middle;whiteSpace=wrap;rounded=0;" vertex="1" parent="1">
          <mxGeometry x="320" y="210" width="80" height="30" as="geometry" />
        </mxCell>
        <mxCell id="0Dm5EvszsIW7v5qMqg8m-9" value="Persona" style="text;html=1;align=center;verticalAlign=middle;whiteSpace=wrap;rounded=0;" vertex="1" parent="1">
          <mxGeometry x="520" y="210" width="80" height="30" as="geometry" />
        </mxCell>
        <mxCell id="0Dm5EvszsIW7v5qMqg8m-10" value="Herencia" style="endArrow=block;endFill=1;html=1;edgeStyle=orthogonalEdgeStyle;align=left;verticalAlign=top;rounded=0;" edge="1" parent="1">
          <mxGeometry x="-1" relative="1" as="geometry">
            <mxPoint x="410" y="224.5" as="sourcePoint" />
            <mxPoint x="520" y="224.5" as="targetPoint" />
          </mxGeometry>
        </mxCell>
        <mxCell id="0Dm5EvszsIW7v5qMqg8m-11" value="1" style="edgeLabel;resizable=0;html=1;align=left;verticalAlign=bottom;" connectable="0" vertex="1" parent="0Dm5EvszsIW7v5qMqg8m-10">
          <mxGeometry x="-1" relative="1" as="geometry" />
        </mxCell>
        <mxCell id="0Dm5EvszsIW7v5qMqg8m-12" value="Composicion" style="text;html=1;align=center;verticalAlign=middle;whiteSpace=wrap;rounded=0;" vertex="1" parent="1">
          <mxGeometry x="224" y="280" width="80" height="30" as="geometry" />
        </mxCell>
        <mxCell id="0Dm5EvszsIW7v5qMqg8m-13" value="Coche" style="text;html=1;align=center;verticalAlign=middle;whiteSpace=wrap;rounded=0;" vertex="1" parent="1">
          <mxGeometry x="324" y="280" width="80" height="30" as="geometry" />
        </mxCell>
        <mxCell id="0Dm5EvszsIW7v5qMqg8m-14" value="Motor" style="text;html=1;align=center;verticalAlign=middle;whiteSpace=wrap;rounded=0;" vertex="1" parent="1">
          <mxGeometry x="524" y="280" width="80" height="30" as="geometry" />
        </mxCell>
        <mxCell id="0Dm5EvszsIW7v5qMqg8m-17" value="1" style="endArrow=open;html=1;endSize=12;startArrow=diamondThin;startSize=14;startFill=1;edgeStyle=orthogonalEdgeStyle;align=left;verticalAlign=bottom;rounded=0;" edge="1" parent="1">
          <mxGeometry x="-1" y="3" relative="1" as="geometry">
            <mxPoint x="30" y="294.5" as="sourcePoint" />
            <mxPoint x="190" y="294.5" as="targetPoint" />
          </mxGeometry>
        </mxCell>
        <mxCell id="0Dm5EvszsIW7v5qMqg8m-18" value="1" style="endArrow=open;html=1;endSize=12;startArrow=diamondThin;startSize=14;startFill=1;edgeStyle=orthogonalEdgeStyle;align=left;verticalAlign=bottom;rounded=0;" edge="1" parent="1">
          <mxGeometry x="-1" y="3" relative="1" as="geometry">
            <mxPoint x="410" y="294.5" as="sourcePoint" />
            <mxPoint x="520" y="294.5" as="targetPoint" />
          </mxGeometry>
        </mxCell>
        <mxCell id="0Dm5EvszsIW7v5qMqg8m-19" value="Agregacion" style="text;html=1;align=center;verticalAlign=middle;whiteSpace=wrap;rounded=0;" vertex="1" parent="1">
          <mxGeometry x="224" y="350" width="80" height="30" as="geometry" />
        </mxCell>
        <mxCell id="0Dm5EvszsIW7v5qMqg8m-20" value="Curso" style="text;html=1;align=center;verticalAlign=middle;whiteSpace=wrap;rounded=0;" vertex="1" parent="1">
          <mxGeometry x="324" y="350" width="80" height="30" as="geometry" />
        </mxCell>
        <mxCell id="0Dm5EvszsIW7v5qMqg8m-21" value="Profesor" style="text;html=1;align=center;verticalAlign=middle;whiteSpace=wrap;rounded=0;" vertex="1" parent="1">
          <mxGeometry x="524" y="350" width="80" height="30" as="geometry" />
        </mxCell>
        <mxCell id="0Dm5EvszsIW7v5qMqg8m-22" value="1" style="endArrow=open;html=1;endSize=12;startArrow=diamondThin;startSize=14;startFill=0;edgeStyle=orthogonalEdgeStyle;align=left;verticalAlign=bottom;rounded=0;" edge="1" parent="1">
          <mxGeometry x="-1" y="3" relative="1" as="geometry">
            <mxPoint x="30" y="364.5" as="sourcePoint" />
            <mxPoint x="190" y="364.5" as="targetPoint" />
          </mxGeometry>
        </mxCell>
        <mxCell id="0Dm5EvszsIW7v5qMqg8m-23" value="1" style="endArrow=open;html=1;endSize=12;startArrow=diamondThin;startSize=14;startFill=0;edgeStyle=orthogonalEdgeStyle;align=left;verticalAlign=bottom;rounded=0;" edge="1" parent="1">
          <mxGeometry x="-1" y="3" relative="1" as="geometry">
            <mxPoint x="414" y="364.5" as="sourcePoint" />
            <mxPoint x="524" y="364.5" as="targetPoint" />
          </mxGeometry>
        </mxCell>
      </root>
    </mxGraphModel>
  </diagram>
</mxfile>
